<svg id="Calque_1" data-name="Calque 1" xmlns="http://www.w3.org/2000/svg" viewBox="0 0 898.07 343.2"><defs><style>.cls-1,.cls-2{fill:#fff;}.cls-2{fill-rule:evenodd;}</style></defs><path class="cls-1" d="M447.27,166.32h-31v49h-11V133.73h11v22.74h31V133.73h11v81.54h-11Z"/><path class="cls-1" d="M512.34,184.58c0-9.75-7.05-14.34-13.44-14.34s-13.44,4.59-13.44,14.34v30.69h-11V184.58c0-12,9.74-23.07,24.41-23.07S523,172.59,523,184.58Z"/><path class="cls-1" d="M537,133.73h47.38v9.86H548v12.88h36.4v9.85H548v49H537Z"/><path class="cls-1" d="M599.48,125.89h11v89.38h-11Z"/><path class="cls-1" d="M681,189.51c0,15.23-12.43,28-29.12,28s-29.12-12.77-29.12-28,12.43-28,29.12-28S681,174.27,681,189.51Zm-11,0c0-10.76-7.62-18.82-18.15-18.82s-18.14,8.18-18.14,18.82,7.61,18.81,18.14,18.81S670,200.26,670,189.51Z"/><path class="cls-1" d="M764.11,187.38V163.75h11v23.63c0,19.6-8.06,30.13-23.74,30.13-8.18,0-14.23-3.36-18.26-9.08-3.92,5.72-10.08,9.08-18.26,9.08-15.68,0-23.74-10.53-23.74-30.13V163.75h11v23.63c0,12.88,3.24,20.38,12.76,20.38s12.77-7.5,12.77-20.38V163.75h11v23.63c0,12.88,3.25,20.38,12.77,20.38S764.11,200.26,764.11,187.38Z"/><path class="cls-1" d="M795.59,204.51a6.65,6.65,0,0,1,6.49,6.5,6.58,6.58,0,0,1-6.49,6.5,6.51,6.51,0,0,1-6.5-6.5A6.58,6.58,0,0,1,795.59,204.51Z"/><path class="cls-1" d="M864.13,208.21c-5.83,6.72-14.45,9.3-21.17,9.3-17.58,0-29.12-11.76-29.12-28,0-15.24,12.43-28,29.12-28s29.12,10.52,29.12,32.14V217Zm-21.17.11c10.53,0,18.14-8.17,18.14-18.81s-7.61-19-18.14-19-18.14,8.28-18.14,19S832.43,208.32,843,208.32Z"/><path class="cls-1" d="M892.58,147a5.94,5.94,0,1,1-5.94,5.93A6,6,0,0,1,892.58,147Zm-5.49,16.8h11v51.52h-11Z"/><path class="cls-2" d="M171.6,0C77,0,0,77,0,171.6S77,343.2,171.6,343.2s171.6-77,171.6-171.6S266.2,0,171.6,0ZM18,171.6C18,86.9,86.9,18,171.6,18S325.2,86.9,325.2,171.6,256.3,325.2,171.6,325.2,18,256.3,18,171.6Z"/><path class="cls-2" d="M237.4,188.2a15.09,15.09,0,1,1-12.5-17.3,15.13,15.13,0,0,1,12.5,17.3m-2-32.6a14,14,0,1,1-11.6-16.1,13.9,13.9,0,0,1,11.6,16.1m-5.7,67a14,14,0,1,1-11.6-16.1,14,14,0,0,1,11.6,16.1m-15.8,27.1a11.7,11.7,0,1,1-9.7-13.4,11.67,11.67,0,0,1,9.7,13.4m-19,20.5a9.77,9.77,0,1,1-8.1-11.2,9.63,9.63,0,0,1,8.1,11.2m30.4-145.6a11.7,11.7,0,1,1-9.7-13.4,11.67,11.67,0,0,1,9.7,13.4m-14-23.8a9.77,9.77,0,1,1-8.1-11.2,9.68,9.68,0,0,1,8.1,11.2M193.8,82.7a7.47,7.47,0,0,1-8.6,6.2h0a7.5,7.5,0,1,1,2.4-14.8,7.62,7.62,0,0,1,6.2,8.6M177.7,69.6a6.22,6.22,0,0,1-12.3-1.9h0a6.21,6.21,0,0,1,7.2-5,6,6,0,0,1,5.1,6.9M162.9,58.8a4.94,4.94,0,0,1-5.6,4.1h0a4.95,4.95,0,1,1,1.4-9.8h.2a5,5,0,0,1,4,5.7h0m11.5,225.6a7.47,7.47,0,0,1-8.6,6.2,7.54,7.54,0,1,1,2.3-14.9h.1a7.72,7.72,0,0,1,6.2,8.7m-19.7,6.4a6.22,6.22,0,0,1-12.3-1.9v-.1a6.08,6.08,0,0,1,7.1-5.1,6.22,6.22,0,0,1,5.2,7.1M137.9,289a5.32,5.32,0,1,1-4.4-6.1h0a5.26,5.26,0,0,1,4.4,6.1m-13.2-7.9a3.85,3.85,0,1,1-3.2-4.4,3.85,3.85,0,0,1,3.2,4.4m-5.9-11.8a5.31,5.31,0,0,1-6.1,4.4h0a5.32,5.32,0,1,1,6.1-4.4m-.8-15.2a6.22,6.22,0,0,1-7.1,5.2h0a6.22,6.22,0,1,1,7.1-5.2m4.1-17.6a7.47,7.47,0,0,1-8.6,6.2h0a7.5,7.5,0,1,1,2.4-14.8h0a7.42,7.42,0,0,1,6.2,8.6m6.7-20.3a9.77,9.77,0,1,1-8.1-11.2,9.8,9.8,0,0,1,8.1,11.2m8.9-24.1a11.7,11.7,0,1,1-9.7-13.4,11.67,11.67,0,0,1,9.7,13.4m10.2-27.3a14,14,0,1,1-11.6-16.1,14,14,0,0,1,11.6,16.1M159.6,135a15.09,15.09,0,1,1-12.5-17.3A15.13,15.13,0,0,1,159.6,135m-10-83.9a3.85,3.85,0,0,1-4.4,3.2h0a3.85,3.85,0,0,1,1.2-7.6,3.78,3.78,0,0,1,3.2,4.4h0"/><circle class="cls-1" cx="221.56" cy="153.35" r="14.02"/></svg>